<svg width="884" height="200" viewBox="0 0 884 200" fill="none" xmlns="http://www.w3.org/2000/svg">
<path d="M204.488 75.476C200.997 75.476 197.869 74.9093 195.104 73.776C192.339 72.6427 190.117 70.9653 188.44 68.744C186.808 66.5227 185.947 63.848 185.856 60.72H198.232C198.413 62.488 199.025 63.848 200.068 64.8C201.111 65.7067 202.471 66.16 204.148 66.16C205.871 66.16 207.231 65.7747 208.228 65.004C209.225 64.188 209.724 63.0773 209.724 61.672C209.724 60.4933 209.316 59.5187 208.5 58.748C207.729 57.9773 206.755 57.3427 205.576 56.844C204.443 56.3453 202.811 55.7787 200.68 55.144C197.597 54.192 195.081 53.24 193.132 52.288C191.183 51.336 189.505 49.9307 188.1 48.072C186.695 46.2133 185.992 43.788 185.992 40.796C185.992 36.3533 187.601 32.8853 190.82 30.392C194.039 27.8533 198.232 26.584 203.4 26.584C208.659 26.584 212.897 27.8533 216.116 30.392C219.335 32.8853 221.057 36.376 221.284 40.864H208.704C208.613 39.3227 208.047 38.1213 207.004 37.26C205.961 36.3533 204.624 35.9 202.992 35.9C201.587 35.9 200.453 36.2853 199.592 37.056C198.731 37.7813 198.3 38.8467 198.3 40.252C198.3 41.7933 199.025 42.9947 200.476 43.856C201.927 44.7173 204.193 45.6467 207.276 46.644C210.359 47.6867 212.852 48.684 214.756 49.636C216.705 50.588 218.383 51.9707 219.788 53.784C221.193 55.5973 221.896 57.932 221.896 60.788C221.896 63.508 221.193 65.9787 219.788 68.2C218.428 70.4213 216.433 72.1893 213.804 73.504C211.175 74.8187 208.069 75.476 204.488 75.476ZM252.376 36.648C256.728 36.648 260.219 38.0987 262.848 41C265.477 43.856 266.792 47.8 266.792 52.832V75H255.232V54.396C255.232 51.8573 254.575 49.8853 253.26 48.48C251.945 47.0747 250.177 46.372 247.956 46.372C245.735 46.372 243.967 47.0747 242.652 48.48C241.337 49.8853 240.68 51.8573 240.68 54.396V75H229.052V24.68H240.68V42.156C241.859 40.4787 243.468 39.1413 245.508 38.144C247.548 37.1467 249.837 36.648 252.376 36.648ZM292.144 75.544C288.427 75.544 285.072 74.7507 282.08 73.164C279.134 71.5773 276.799 69.3107 275.076 66.364C273.399 63.4173 272.56 59.972 272.56 56.028C272.56 52.1293 273.422 48.7067 275.144 45.76C276.867 42.768 279.224 40.4787 282.216 38.892C285.208 37.3053 288.563 36.512 292.28 36.512C295.998 36.512 299.352 37.3053 302.344 38.892C305.336 40.4787 307.694 42.768 309.416 45.76C311.139 48.7067 312 52.1293 312 56.028C312 59.9267 311.116 63.372 309.348 66.364C307.626 69.3107 305.246 71.5773 302.208 73.164C299.216 74.7507 295.862 75.544 292.144 75.544ZM292.144 65.48C294.366 65.48 296.247 64.664 297.788 63.032C299.375 61.4 300.168 59.0653 300.168 56.028C300.168 52.9907 299.398 50.656 297.856 49.024C296.36 47.392 294.502 46.576 292.28 46.576C290.014 46.576 288.132 47.392 286.636 49.024C285.14 50.6107 284.392 52.9453 284.392 56.028C284.392 59.0653 285.118 61.4 286.568 63.032C288.064 64.664 289.923 65.48 292.144 65.48ZM329.797 42.428C330.93 40.66 332.494 39.232 334.489 38.144C336.484 37.056 338.818 36.512 341.493 36.512C344.621 36.512 347.454 37.3053 349.993 38.892C352.532 40.4787 354.526 42.7453 355.977 45.692C357.473 48.6387 358.221 52.0613 358.221 55.96C358.221 59.8587 357.473 63.304 355.977 66.296C354.526 69.2427 352.532 71.532 349.993 73.164C347.454 74.7507 344.621 75.544 341.493 75.544C338.864 75.544 336.529 75 334.489 73.912C332.494 72.824 330.93 71.4187 329.797 69.696V93.088H318.169V37.056H329.797V42.428ZM346.389 55.96C346.389 53.0587 345.573 50.792 343.941 49.16C342.354 47.4827 340.382 46.644 338.025 46.644C335.713 46.644 333.741 47.4827 332.109 49.16C330.522 50.8373 329.729 53.1267 329.729 56.028C329.729 58.9293 330.522 61.2187 332.109 62.896C333.741 64.5733 335.713 65.412 338.025 65.412C340.337 65.412 342.309 64.5733 343.941 62.896C345.573 61.1733 346.389 58.8613 346.389 55.96ZM370.169 33.112C368.129 33.112 366.452 32.5227 365.137 31.344C363.868 30.12 363.233 28.624 363.233 26.856C363.233 25.0427 363.868 23.5467 365.137 22.368C366.452 21.144 368.129 20.532 370.169 20.532C372.164 20.532 373.796 21.144 375.065 22.368C376.38 23.5467 377.037 25.0427 377.037 26.856C377.037 28.624 376.38 30.12 375.065 31.344C373.796 32.5227 372.164 33.112 370.169 33.112ZM375.949 37.056V75H364.321V37.056H375.949ZM403.416 46.712H397.16V75H385.532V46.712H381.316V37.056H385.532V35.968C385.532 31.2987 386.869 27.7627 389.544 25.36C392.219 22.912 396.14 21.688 401.308 21.688C402.169 21.688 402.804 21.7107 403.212 21.756V31.616C400.991 31.48 399.427 31.7973 398.52 32.568C397.613 33.3387 397.16 34.7213 397.16 36.716V37.056H403.416V46.712ZM447.64 37.056L423.84 93.02H411.328L420.032 73.708L404.596 37.056H417.584L426.356 60.788L435.06 37.056H447.64ZM221.556 95.264V104.58H208.908V143H197.28V104.58H184.632V95.264H221.556ZM250.716 104.648C255.068 104.648 258.558 106.099 261.188 109C263.817 111.856 265.132 115.8 265.132 120.832V143H253.572V122.396C253.572 119.857 252.914 117.885 251.6 116.48C250.285 115.075 248.517 114.372 246.296 114.372C244.074 114.372 242.306 115.075 240.992 116.48C239.677 117.885 239.02 119.857 239.02 122.396V143H227.392V92.68H239.02V110.156C240.198 108.479 241.808 107.141 243.848 106.144C245.888 105.147 248.177 104.648 250.716 104.648ZM308.98 123.416C308.98 124.504 308.912 125.637 308.776 126.816H282.46C282.641 129.173 283.389 130.987 284.704 132.256C286.064 133.48 287.719 134.092 289.668 134.092C292.569 134.092 294.587 132.868 295.72 130.42H308.096C307.461 132.913 306.305 135.157 304.628 137.152C302.996 139.147 300.933 140.711 298.44 141.844C295.947 142.977 293.159 143.544 290.076 143.544C286.359 143.544 283.049 142.751 280.148 141.164C277.247 139.577 274.98 137.311 273.348 134.364C271.716 131.417 270.9 127.972 270.9 124.028C270.9 120.084 271.693 116.639 273.28 113.692C274.912 110.745 277.179 108.479 280.08 106.892C282.981 105.305 286.313 104.512 290.076 104.512C293.748 104.512 297.012 105.283 299.868 106.824C302.724 108.365 304.945 110.564 306.532 113.42C308.164 116.276 308.98 119.608 308.98 123.416ZM297.08 120.356C297.08 118.361 296.4 116.775 295.04 115.596C293.68 114.417 291.98 113.828 289.94 113.828C287.991 113.828 286.336 114.395 284.976 115.528C283.661 116.661 282.845 118.271 282.528 120.356H297.08ZM363.53 104.648C368.245 104.648 371.985 106.076 374.75 108.932C377.561 111.788 378.966 115.755 378.966 120.832V143H367.406V122.396C367.406 119.948 366.749 118.067 365.434 116.752C364.165 115.392 362.397 114.712 360.13 114.712C357.864 114.712 356.073 115.392 354.758 116.752C353.489 118.067 352.854 119.948 352.854 122.396V143H341.294V122.396C341.294 119.948 340.637 118.067 339.322 116.752C338.053 115.392 336.285 114.712 334.018 114.712C331.752 114.712 329.961 115.392 328.646 116.752C327.377 118.067 326.742 119.948 326.742 122.396V143H315.114V105.056H326.742V109.816C327.921 108.229 329.462 106.983 331.366 106.076C333.27 105.124 335.424 104.648 337.826 104.648C340.682 104.648 343.221 105.26 345.442 106.484C347.709 107.708 349.477 109.453 350.746 111.72C352.061 109.635 353.852 107.935 356.118 106.62C358.385 105.305 360.856 104.648 363.53 104.648ZM422.867 123.416C422.867 124.504 422.799 125.637 422.663 126.816H396.347C396.528 129.173 397.276 130.987 398.591 132.256C399.951 133.48 401.605 134.092 403.555 134.092C406.456 134.092 408.473 132.868 409.607 130.42H421.983C421.348 132.913 420.192 135.157 418.515 137.152C416.883 139.147 414.82 140.711 412.327 141.844C409.833 142.977 407.045 143.544 403.963 143.544C400.245 143.544 396.936 142.751 394.035 141.164C391.133 139.577 388.867 137.311 387.235 134.364C385.603 131.417 384.787 127.972 384.787 124.028C384.787 120.084 385.58 116.639 387.167 113.692C388.799 110.745 391.065 108.479 393.967 106.892C396.868 105.305 400.2 104.512 403.963 104.512C407.635 104.512 410.899 105.283 413.755 106.824C416.611 108.365 418.832 110.564 420.419 113.42C422.051 116.276 422.867 119.608 422.867 123.416ZM410.967 120.356C410.967 118.361 410.287 116.775 408.927 115.596C407.567 114.417 405.867 113.828 403.827 113.828C401.877 113.828 400.223 114.395 398.863 115.528C397.548 116.661 396.732 118.271 396.415 120.356H410.967ZM455.039 134.024H470.271V143H443.411V95.264H455.039V134.024ZM473.506 123.96C473.506 120.061 474.231 116.639 475.682 113.692C477.178 110.745 479.195 108.479 481.734 106.892C484.272 105.305 487.106 104.512 490.234 104.512C492.908 104.512 495.243 105.056 497.238 106.144C499.278 107.232 500.842 108.66 501.93 110.428V105.056H513.558V143H501.93V137.628C500.796 139.396 499.21 140.824 497.17 141.912C495.175 143 492.84 143.544 490.166 143.544C487.083 143.544 484.272 142.751 481.734 141.164C479.195 139.532 477.178 137.243 475.682 134.296C474.231 131.304 473.506 127.859 473.506 123.96ZM501.93 124.028C501.93 121.127 501.114 118.837 499.482 117.16C497.895 115.483 495.946 114.644 493.634 114.644C491.322 114.644 489.35 115.483 487.718 117.16C486.131 118.792 485.338 121.059 485.338 123.96C485.338 126.861 486.131 129.173 487.718 130.896C489.35 132.573 491.322 133.412 493.634 133.412C495.946 133.412 497.895 132.573 499.482 130.896C501.114 129.219 501.93 126.929 501.93 124.028ZM533.598 110.428C534.686 108.66 536.25 107.232 538.29 106.144C540.33 105.056 542.665 104.512 545.294 104.512C548.422 104.512 551.255 105.305 553.794 106.892C556.333 108.479 558.327 110.745 559.778 113.692C561.274 116.639 562.022 120.061 562.022 123.96C562.022 127.859 561.274 131.304 559.778 134.296C558.327 137.243 556.333 139.532 553.794 141.164C551.255 142.751 548.422 143.544 545.294 143.544C542.619 143.544 540.285 143.023 538.29 141.98C536.295 140.892 534.731 139.464 533.598 137.696V143H521.97V92.68H533.598V110.428ZM550.19 123.96C550.19 121.059 549.374 118.792 547.742 117.16C546.155 115.483 544.183 114.644 541.826 114.644C539.514 114.644 537.542 115.483 535.91 117.16C534.323 118.837 533.53 121.127 533.53 124.028C533.53 126.929 534.323 129.219 535.91 130.896C537.542 132.573 539.514 133.412 541.826 133.412C544.138 133.412 546.11 132.573 547.742 130.896C549.374 129.173 550.19 126.861 550.19 123.96ZM616.872 95.264V104.58H604.224V143H592.596V104.58H579.948V95.264H616.872ZM646.032 104.648C650.384 104.648 653.875 106.099 656.504 109C659.134 111.856 660.448 115.8 660.448 120.832V143H648.888V122.396C648.888 119.857 648.231 117.885 646.916 116.48C645.602 115.075 643.834 114.372 641.612 114.372C639.391 114.372 637.623 115.075 636.308 116.48C634.994 117.885 634.336 119.857 634.336 122.396V143H622.708V92.68H634.336V110.156C635.515 108.479 637.124 107.141 639.164 106.144C641.204 105.147 643.494 104.648 646.032 104.648ZM704.296 123.416C704.296 124.504 704.229 125.637 704.093 126.816H677.777C677.958 129.173 678.706 130.987 680.021 132.256C681.381 133.48 683.035 134.092 684.985 134.092C687.886 134.092 689.903 132.868 691.037 130.42H703.413C702.778 132.913 701.622 135.157 699.945 137.152C698.313 139.147 696.25 140.711 693.757 141.844C691.263 142.977 688.475 143.544 685.393 143.544C681.675 143.544 678.366 142.751 675.465 141.164C672.563 139.577 670.297 137.311 668.665 134.364C667.033 131.417 666.217 127.972 666.217 124.028C666.217 120.084 667.01 116.639 668.597 113.692C670.229 110.745 672.495 108.479 675.397 106.892C678.298 105.305 681.63 104.512 685.393 104.512C689.065 104.512 692.329 105.283 695.185 106.824C698.041 108.365 700.262 110.564 701.849 113.42C703.481 116.276 704.296 119.608 704.296 123.416ZM692.397 120.356C692.397 118.361 691.717 116.775 690.357 115.596C688.997 114.417 687.297 113.828 685.257 113.828C683.307 113.828 681.653 114.395 680.293 115.528C678.978 116.661 678.162 118.271 677.845 120.356H692.397ZM758.847 104.648C763.562 104.648 767.302 106.076 770.067 108.932C772.878 111.788 774.283 115.755 774.283 120.832V143H762.723V122.396C762.723 119.948 762.066 118.067 760.751 116.752C759.482 115.392 757.714 114.712 755.447 114.712C753.18 114.712 751.39 115.392 750.075 116.752C748.806 118.067 748.171 119.948 748.171 122.396V143H736.611V122.396C736.611 119.948 735.954 118.067 734.639 116.752C733.37 115.392 731.602 114.712 729.335 114.712C727.068 114.712 725.278 115.392 723.963 116.752C722.694 118.067 722.059 119.948 722.059 122.396V143H710.431V105.056H722.059V109.816C723.238 108.229 724.779 106.983 726.683 106.076C728.587 105.124 730.74 104.648 733.143 104.648C735.999 104.648 738.538 105.26 740.759 106.484C743.026 107.708 744.794 109.453 746.063 111.72C747.378 109.635 749.168 107.935 751.435 106.62C753.702 105.305 756.172 104.648 758.847 104.648ZM818.183 123.416C818.183 124.504 818.115 125.637 817.979 126.816H791.663C791.845 129.173 792.593 130.987 793.907 132.256C795.267 133.48 796.922 134.092 798.871 134.092C801.773 134.092 803.79 132.868 804.923 130.42H817.299C816.665 132.913 815.509 135.157 813.831 137.152C812.199 139.147 810.137 140.711 807.643 141.844C805.15 142.977 802.362 143.544 799.279 143.544C795.562 143.544 792.253 142.751 789.351 141.164C786.45 139.577 784.183 137.311 782.551 134.364C780.919 131.417 780.103 127.972 780.103 124.028C780.103 120.084 780.897 116.639 782.483 113.692C784.115 110.745 786.382 108.479 789.283 106.892C792.185 105.305 795.517 104.512 799.279 104.512C802.951 104.512 806.215 105.283 809.071 106.824C811.927 108.365 814.149 110.564 815.735 113.42C817.367 116.276 818.183 119.608 818.183 123.416ZM806.283 120.356C806.283 118.361 805.603 116.775 804.243 115.596C802.883 114.417 801.183 113.828 799.143 113.828C797.194 113.828 795.539 114.395 794.179 115.528C792.865 116.661 792.049 118.271 791.731 120.356H806.283Z" fill="#6E78FF"/>
<path d="M143.937 45.7713C143.937 45.7713 143.937 45.7713 143.937 45.0897L143.425 43.8116C143.247 43.5404 143.048 43.284 142.828 43.0448C142.6 42.6841 142.344 42.3422 142.061 42.0224L141.293 41.4259L139.929 40.7443L75.9657 1.29511C74.6103 0.448765 73.044 0 71.4457 0C69.8473 0 68.281 0.448765 66.9256 1.29511L3.47423 40.7443L2.70668 41.4259L1.93912 42.0224C1.65641 42.3422 1.39974 42.6841 1.17156 43.0448C0.95231 43.284 0.752671 43.5404 0.574573 43.8116L0.0628668 45.0897C0.0628668 45.0897 0.0628668 45.0897 0.0628668 45.7713C-0.0209556 46.5074 -0.0209556 47.2505 0.0628668 47.9866V122.454C0.0599664 123.902 0.426485 125.327 1.12782 126.594C1.82915 127.862 2.84217 128.929 4.07122 129.697L68.0343 169.146C68.428 169.389 68.8608 169.562 69.3136 169.657C69.3136 169.657 69.74 169.657 69.9958 169.657C71.4387 170.114 72.9878 170.114 74.4306 169.657C74.4306 169.657 74.857 169.657 75.1129 169.657C75.5656 169.562 75.9984 169.389 76.3921 169.146V169.146L139.929 129.697C141.158 128.929 142.171 127.862 142.872 126.594C143.574 125.327 143.94 123.902 143.937 122.454V47.9866C144.021 47.2505 144.021 46.5074 143.937 45.7713V45.7713ZM63.1731 146.652L16.2668 117.683V63.3232L63.1731 92.2072V146.652ZM71.7015 77.467L23.9424 47.9866L71.7015 18.5914L119.461 47.9866L71.7015 77.467ZM127.136 117.683L80.2299 146.652V92.2072L127.136 63.3232V117.683Z" fill="#6E78FF"/>
</svg>
