<svg width="841" height="190" viewBox="0 0 841 190" fill="none" xmlns="http://www.w3.org/2000/svg">
<g clip-path="url(#clip0)">
<path d="M204.488 75.476C200.997 75.476 197.869 74.9093 195.104 73.776C192.339 72.6427 190.117 70.9653 188.44 68.744C186.808 66.5227 185.947 63.848 185.856 60.72H198.232C198.413 62.488 199.025 63.848 200.068 64.8C201.111 65.7067 202.471 66.16 204.148 66.16C205.871 66.16 207.231 65.7747 208.228 65.004C209.225 64.188 209.724 63.0773 209.724 61.672C209.724 60.4933 209.316 59.5187 208.5 58.748C207.729 57.9773 206.755 57.3427 205.576 56.844C204.443 56.3453 202.811 55.7787 200.68 55.144C197.597 54.192 195.081 53.24 193.132 52.288C191.183 51.336 189.505 49.9307 188.1 48.072C186.695 46.2133 185.992 43.788 185.992 40.796C185.992 36.3533 187.601 32.8853 190.82 30.392C194.039 27.8533 198.232 26.584 203.4 26.584C208.659 26.584 212.897 27.8533 216.116 30.392C219.335 32.8853 221.057 36.376 221.284 40.864H208.704C208.613 39.3227 208.047 38.1213 207.004 37.26C205.961 36.3533 204.624 35.9 202.992 35.9C201.587 35.9 200.453 36.2853 199.592 37.056C198.731 37.7813 198.3 38.8467 198.3 40.252C198.3 41.7933 199.025 42.9947 200.476 43.856C201.927 44.7173 204.193 45.6467 207.276 46.644C210.359 47.6867 212.852 48.684 214.756 49.636C216.705 50.588 218.383 51.9707 219.788 53.784C221.193 55.5973 221.896 57.932 221.896 60.788C221.896 63.508 221.193 65.9787 219.788 68.2C218.428 70.4213 216.433 72.1893 213.804 73.504C211.175 74.8187 208.069 75.476 204.488 75.476ZM252.376 36.648C256.728 36.648 260.219 38.0987 262.848 41C265.477 43.856 266.792 47.8 266.792 52.832V75H255.232V54.396C255.232 51.8573 254.575 49.8853 253.26 48.48C251.945 47.0747 250.177 46.372 247.956 46.372C245.735 46.372 243.967 47.0747 242.652 48.48C241.337 49.8853 240.68 51.8573 240.68 54.396V75H229.052V24.68H240.68V42.156C241.859 40.4787 243.468 39.1413 245.508 38.144C247.548 37.1467 249.837 36.648 252.376 36.648ZM292.144 75.544C288.427 75.544 285.072 74.7507 282.08 73.164C279.134 71.5773 276.799 69.3107 275.076 66.364C273.399 63.4173 272.56 59.972 272.56 56.028C272.56 52.1293 273.422 48.7067 275.144 45.76C276.867 42.768 279.224 40.4787 282.216 38.892C285.208 37.3053 288.563 36.512 292.28 36.512C295.998 36.512 299.352 37.3053 302.344 38.892C305.336 40.4787 307.694 42.768 309.416 45.76C311.139 48.7067 312 52.1293 312 56.028C312 59.9267 311.116 63.372 309.348 66.364C307.626 69.3107 305.246 71.5773 302.208 73.164C299.216 74.7507 295.862 75.544 292.144 75.544ZM292.144 65.48C294.366 65.48 296.247 64.664 297.788 63.032C299.375 61.4 300.168 59.0653 300.168 56.028C300.168 52.9907 299.398 50.656 297.856 49.024C296.36 47.392 294.502 46.576 292.28 46.576C290.014 46.576 288.132 47.392 286.636 49.024C285.14 50.6107 284.392 52.9453 284.392 56.028C284.392 59.0653 285.118 61.4 286.568 63.032C288.064 64.664 289.923 65.48 292.144 65.48ZM329.797 42.428C330.93 40.66 332.494 39.232 334.489 38.144C336.484 37.056 338.818 36.512 341.493 36.512C344.621 36.512 347.454 37.3053 349.993 38.892C352.532 40.4787 354.526 42.7453 355.977 45.692C357.473 48.6387 358.221 52.0613 358.221 55.96C358.221 59.8587 357.473 63.304 355.977 66.296C354.526 69.2427 352.532 71.532 349.993 73.164C347.454 74.7507 344.621 75.544 341.493 75.544C338.864 75.544 336.529 75 334.489 73.912C332.494 72.824 330.93 71.4187 329.797 69.696V93.088H318.169V37.056H329.797V42.428ZM346.389 55.96C346.389 53.0587 345.573 50.792 343.941 49.16C342.354 47.4827 340.382 46.644 338.025 46.644C335.713 46.644 333.741 47.4827 332.109 49.16C330.522 50.8373 329.729 53.1267 329.729 56.028C329.729 58.9293 330.522 61.2187 332.109 62.896C333.741 64.5733 335.713 65.412 338.025 65.412C340.337 65.412 342.309 64.5733 343.941 62.896C345.573 61.1733 346.389 58.8613 346.389 55.96ZM370.169 33.112C368.129 33.112 366.452 32.5227 365.137 31.344C363.868 30.12 363.233 28.624 363.233 26.856C363.233 25.0427 363.868 23.5467 365.137 22.368C366.452 21.144 368.129 20.532 370.169 20.532C372.164 20.532 373.796 21.144 375.065 22.368C376.38 23.5467 377.037 25.0427 377.037 26.856C377.037 28.624 376.38 30.12 375.065 31.344C373.796 32.5227 372.164 33.112 370.169 33.112ZM375.949 37.056V75H364.321V37.056H375.949ZM403.416 46.712H397.16V75H385.532V46.712H381.316V37.056H385.532V35.968C385.532 31.2987 386.869 27.7627 389.544 25.36C392.219 22.912 396.14 21.688 401.308 21.688C402.169 21.688 402.804 21.7107 403.212 21.756V31.616C400.991 31.48 399.427 31.7973 398.52 32.568C397.613 33.3387 397.16 34.7213 397.16 36.716V37.056H403.416V46.712ZM447.64 37.056L423.84 93.02H411.328L420.032 73.708L404.596 37.056H417.584L426.356 60.788L435.06 37.056H447.64ZM218.292 95.264V104.58H198.844V114.644H213.396V123.688H198.844V143H187.216V95.264H218.292ZM241.676 143.544C237.958 143.544 234.604 142.751 231.612 141.164C228.665 139.577 226.33 137.311 224.608 134.364C222.93 131.417 222.092 127.972 222.092 124.028C222.092 120.129 222.953 116.707 224.675 113.76C226.398 110.768 228.756 108.479 231.748 106.892C234.74 105.305 238.094 104.512 241.812 104.512C245.529 104.512 248.884 105.305 251.876 106.892C254.868 108.479 257.225 110.768 258.948 113.76C260.67 116.707 261.532 120.129 261.532 124.028C261.532 127.927 260.648 131.372 258.88 134.364C257.157 137.311 254.777 139.577 251.74 141.164C248.748 142.751 245.393 143.544 241.676 143.544ZM241.676 133.48C243.897 133.48 245.778 132.664 247.32 131.032C248.906 129.4 249.7 127.065 249.7 124.028C249.7 120.991 248.929 118.656 247.388 117.024C245.892 115.392 244.033 114.576 241.812 114.576C239.545 114.576 237.664 115.392 236.168 117.024C234.672 118.611 233.924 120.945 233.924 124.028C233.924 127.065 234.649 129.4 236.1 131.032C237.596 132.664 239.454 133.48 241.676 133.48ZM305.168 105.056V143H293.54V137.832C292.362 139.509 290.752 140.869 288.712 141.912C286.718 142.909 284.496 143.408 282.048 143.408C279.147 143.408 276.586 142.773 274.364 141.504C272.143 140.189 270.42 138.308 269.196 135.86C267.972 133.412 267.36 130.533 267.36 127.224V105.056H278.92V125.66C278.92 128.199 279.578 130.171 280.892 131.576C282.207 132.981 283.975 133.684 286.196 133.684C288.463 133.684 290.254 132.981 291.568 131.576C292.883 130.171 293.54 128.199 293.54 125.66V105.056H305.168ZM336.641 104.648C341.083 104.648 344.619 106.099 347.249 109C349.923 111.856 351.261 115.8 351.261 120.832V143H339.701V122.396C339.701 119.857 339.043 117.885 337.729 116.48C336.414 115.075 334.646 114.372 332.425 114.372C330.203 114.372 328.435 115.075 327.121 116.48C325.806 117.885 325.149 119.857 325.149 122.396V143H313.521V105.056H325.149V110.088C326.327 108.411 327.914 107.096 329.909 106.144C331.903 105.147 334.147 104.648 336.641 104.648ZM357.029 123.96C357.029 120.061 357.754 116.639 359.205 113.692C360.701 110.745 362.718 108.479 365.257 106.892C367.796 105.305 370.629 104.512 373.757 104.512C376.25 104.512 378.517 105.033 380.557 106.076C382.642 107.119 384.274 108.524 385.453 110.292V92.68H397.081V143H385.453V137.56C384.365 139.373 382.801 140.824 380.761 141.912C378.766 143 376.432 143.544 373.757 143.544C370.629 143.544 367.796 142.751 365.257 141.164C362.718 139.532 360.701 137.243 359.205 134.296C357.754 131.304 357.029 127.859 357.029 123.96ZM385.453 124.028C385.453 121.127 384.637 118.837 383.005 117.16C381.418 115.483 379.469 114.644 377.157 114.644C374.845 114.644 372.873 115.483 371.241 117.16C369.654 118.792 368.861 121.059 368.861 123.96C368.861 126.861 369.654 129.173 371.241 130.896C372.873 132.573 374.845 133.412 377.157 133.412C379.469 133.412 381.418 132.573 383.005 130.896C384.637 129.219 385.453 126.929 385.453 124.028ZM403.181 123.96C403.181 120.061 403.907 116.639 405.357 113.692C406.853 110.745 408.871 108.479 411.409 106.892C413.948 105.305 416.781 104.512 419.909 104.512C422.584 104.512 424.919 105.056 426.913 106.144C428.953 107.232 430.517 108.66 431.605 110.428V105.056H443.233V143H431.605V137.628C430.472 139.396 428.885 140.824 426.845 141.912C424.851 143 422.516 143.544 419.841 143.544C416.759 143.544 413.948 142.751 411.409 141.164C408.871 139.532 406.853 137.243 405.357 134.296C403.907 131.304 403.181 127.859 403.181 123.96ZM431.605 124.028C431.605 121.127 430.789 118.837 429.157 117.16C427.571 115.483 425.621 114.644 423.309 114.644C420.997 114.644 419.025 115.483 417.393 117.16C415.807 118.792 415.013 121.059 415.013 123.96C415.013 126.861 415.807 129.173 417.393 130.896C419.025 132.573 420.997 133.412 423.309 133.412C425.621 133.412 427.571 132.573 429.157 130.896C430.789 129.219 431.605 126.929 431.605 124.028ZM472.794 133.14V143H466.878C462.662 143 459.375 141.98 457.018 139.94C454.66 137.855 453.482 134.477 453.482 129.808V114.712H448.858V105.056H453.482V95.808H465.11V105.056H472.726V114.712H465.11V129.944C465.11 131.077 465.382 131.893 465.926 132.392C466.47 132.891 467.376 133.14 468.646 133.14H472.794ZM485.119 101.112C483.079 101.112 481.401 100.523 480.087 99.344C478.817 98.12 478.183 96.624 478.183 94.856C478.183 93.0427 478.817 91.5467 480.087 90.368C481.401 89.144 483.079 88.532 485.119 88.532C487.113 88.532 488.745 89.144 490.015 90.368C491.329 91.5467 491.987 93.0427 491.987 94.856C491.987 96.624 491.329 98.12 490.015 99.344C488.745 100.523 487.113 101.112 485.119 101.112ZM490.899 105.056V143H479.271V105.056H490.899ZM516.597 143.544C512.88 143.544 509.525 142.751 506.533 141.164C503.587 139.577 501.252 137.311 499.529 134.364C497.852 131.417 497.013 127.972 497.013 124.028C497.013 120.129 497.875 116.707 499.597 113.76C501.32 110.768 503.677 108.479 506.669 106.892C509.661 105.305 513.016 104.512 516.733 104.512C520.451 104.512 523.805 105.305 526.797 106.892C529.789 108.479 532.147 110.768 533.869 113.76C535.592 116.707 536.453 120.129 536.453 124.028C536.453 127.927 535.569 131.372 533.801 134.364C532.079 137.311 529.699 139.577 526.661 141.164C523.669 142.751 520.315 143.544 516.597 143.544ZM516.597 133.48C518.819 133.48 520.7 132.664 522.241 131.032C523.828 129.4 524.621 127.065 524.621 124.028C524.621 120.991 523.851 118.656 522.309 117.024C520.813 115.392 518.955 114.576 516.733 114.576C514.467 114.576 512.585 115.392 511.089 117.024C509.593 118.611 508.845 120.945 508.845 124.028C508.845 127.065 509.571 129.4 511.021 131.032C512.517 132.664 514.376 133.48 516.597 133.48ZM565.742 104.648C570.185 104.648 573.721 106.099 576.35 109C579.025 111.856 580.362 115.8 580.362 120.832V143H568.802V122.396C568.802 119.857 568.145 117.885 566.83 116.48C565.516 115.075 563.748 114.372 561.526 114.372C559.305 114.372 557.537 115.075 556.222 116.48C554.908 117.885 554.25 119.857 554.25 122.396V143H542.622V105.056H554.25V110.088C555.429 108.411 557.016 107.096 559.01 106.144C561.005 105.147 563.249 104.648 565.742 104.648ZM637.193 95.264V104.58H624.545V143H612.917V104.58H600.269V95.264H637.193ZM666.353 104.648C670.705 104.648 674.195 106.099 676.825 109C679.454 111.856 680.769 115.8 680.769 120.832V143H669.209V122.396C669.209 119.857 668.551 117.885 667.237 116.48C665.922 115.075 664.154 114.372 661.933 114.372C659.711 114.372 657.943 115.075 656.629 116.48C655.314 117.885 654.657 119.857 654.657 122.396V143H643.029V92.68H654.657V110.156C655.835 108.479 657.445 107.141 659.485 106.144C661.525 105.147 663.814 104.648 666.353 104.648ZM724.617 123.416C724.617 124.504 724.549 125.637 724.413 126.816H698.097C698.278 129.173 699.026 130.987 700.341 132.256C701.701 133.48 703.355 134.092 705.305 134.092C708.206 134.092 710.223 132.868 711.357 130.42H723.733C723.098 132.913 721.942 135.157 720.265 137.152C718.633 139.147 716.57 140.711 714.077 141.844C711.583 142.977 708.795 143.544 705.713 143.544C701.995 143.544 698.686 142.751 695.785 141.164C692.883 139.577 690.617 137.311 688.985 134.364C687.353 131.417 686.537 127.972 686.537 124.028C686.537 120.084 687.33 116.639 688.917 113.692C690.549 110.745 692.815 108.479 695.717 106.892C698.618 105.305 701.95 104.512 705.713 104.512C709.385 104.512 712.649 105.283 715.505 106.824C718.361 108.365 720.582 110.564 722.169 113.42C723.801 116.276 724.617 119.608 724.617 123.416ZM712.717 120.356C712.717 118.361 712.037 116.775 710.677 115.596C709.317 114.417 707.617 113.828 705.577 113.828C703.627 113.828 701.973 114.395 700.613 115.528C699.298 116.661 698.482 118.271 698.165 120.356H712.717ZM779.167 104.648C783.882 104.648 787.622 106.076 790.387 108.932C793.198 111.788 794.603 115.755 794.603 120.832V143H783.043V122.396C783.043 119.948 782.386 118.067 781.071 116.752C779.802 115.392 778.034 114.712 775.767 114.712C773.5 114.712 771.71 115.392 770.395 116.752C769.126 118.067 768.491 119.948 768.491 122.396V143H756.931V122.396C756.931 119.948 756.274 118.067 754.959 116.752C753.69 115.392 751.922 114.712 749.655 114.712C747.388 114.712 745.598 115.392 744.283 116.752C743.014 118.067 742.379 119.948 742.379 122.396V143H730.751V105.056H742.379V109.816C743.558 108.229 745.099 106.983 747.003 106.076C748.907 105.124 751.06 104.648 753.463 104.648C756.319 104.648 758.858 105.26 761.079 106.484C763.346 107.708 765.114 109.453 766.383 111.72C767.698 109.635 769.488 107.935 771.755 106.62C774.022 105.305 776.492 104.648 779.167 104.648ZM838.504 123.416C838.504 124.504 838.436 125.637 838.3 126.816H811.984C812.165 129.173 812.913 130.987 814.228 132.256C815.588 133.48 817.242 134.092 819.192 134.092C822.093 134.092 824.11 132.868 825.244 130.42H837.62C836.985 132.913 835.829 135.157 834.152 137.152C832.52 139.147 830.457 140.711 827.964 141.844C825.47 142.977 822.682 143.544 819.6 143.544C815.882 143.544 812.573 142.751 809.672 141.164C806.77 139.577 804.504 137.311 802.872 134.364C801.24 131.417 800.424 127.972 800.424 124.028C800.424 120.084 801.217 116.639 802.804 113.692C804.436 110.745 806.702 108.479 809.604 106.892C812.505 105.305 815.837 104.512 819.6 104.512C823.272 104.512 826.536 105.283 829.392 106.824C832.248 108.365 834.469 110.564 836.056 113.42C837.688 116.276 838.504 119.608 838.504 123.416ZM826.604 120.356C826.604 118.361 825.924 116.775 824.564 115.596C823.204 114.417 821.504 113.828 819.464 113.828C817.514 113.828 815.86 114.395 814.5 115.528C813.185 116.661 812.369 118.271 812.052 120.356H826.604Z" fill="#6E78FF"/>
<g filter="url(#filter0_d)">
<path d="M79.9639 151.068L131.601 119.367C134.245 117.744 134.502 114 132.105 112.031C130.624 110.814 128.537 110.664 126.898 111.658L78.6897 140.871C73.7548 143.861 67.5919 143.963 62.5611 141.137L21.0766 117.831C19.2684 116.815 16.9866 117.306 15.7555 118.975C14.2908 120.961 14.8934 123.78 17.0417 124.994L63.7234 151.364C68.7881 154.225 75.0066 154.112 79.9639 151.068Z" fill="#6E78FF"/>
</g>
<path d="M67.5 5.3094C69.9752 3.88034 73.0248 3.88034 75.5 5.3094L138.947 41.9406C141.422 43.3697 142.947 46.0107 142.947 48.8688V122.131C142.947 124.989 141.422 127.63 138.947 129.059L75.5 165.691C73.0248 167.12 69.9752 167.12 67.5 165.691L4.0529 129.059C1.5777 127.63 0.0529022 124.989 0.0529022 122.131V48.8688C0.0529022 46.0107 1.57769 43.3697 4.0529 41.9406L67.5 5.3094Z" fill="#6E78FF"/>
<path d="M92 54V66.0997H66.9672V79.1709H85.698V90.9174H66.9672V116H52V54H92Z" fill="white"/>
</g>
<defs>
<filter id="filter0_d" x="-15.0476" y="96.0038" width="178.802" height="102.429" filterUnits="userSpaceOnUse" color-interpolation-filters="sRGB">
<feFlood flood-opacity="0" result="BackgroundImageFix"/>
<feColorMatrix in="SourceAlpha" type="matrix" values="0 0 0 0 0 0 0 0 0 0 0 0 0 0 0 0 0 0 127 0"/>
<feOffset dy="15"/>
<feGaussianBlur stdDeviation="15"/>
<feColorMatrix type="matrix" values="0 0 0 0 0 0 0 0 0 0.0839841 0 0 0 0 1 0 0 0 0.4 0"/>
<feBlend mode="normal" in2="BackgroundImageFix" result="effect1_dropShadow"/>
<feBlend mode="normal" in="SourceGraphic" in2="effect1_dropShadow" result="shape"/>
</filter>
<clipPath id="clip0">
<rect width="841" height="190" fill="white"/>
</clipPath>
</defs>
</svg>
